<svg width="195" height="46" viewBox="0 0 195 46" fill="none" xmlns="http://www.w3.org/2000/svg">
<path d="M1.52047 24C1.2858 24 1.0938 23.9253 0.944469 23.776C0.795135 23.6267 0.720469 23.4347 0.720469 23.2V2.4C0.720469 2.16533 0.795135 1.97333 0.944469 1.824C1.0938 1.67467 1.2858 1.6 1.52047 1.6H5.74447C5.9578 1.6 6.13914 1.67467 6.28847 1.824C6.45914 1.97333 6.54447 2.16533 6.54447 2.4V19.168H16.2085C16.4431 19.168 16.6351 19.2533 16.7845 19.424C16.9551 19.5733 17.0405 19.7653 17.0405 20V23.2C17.0405 23.4347 16.9551 23.6267 16.7845 23.776C16.6351 23.9253 16.4431 24 16.2085 24H1.52047Z" fill="#F8BD78"/>
<path d="M20.2622 24C20.0276 24 19.8356 23.9253 19.6862 23.776C19.5369 23.6267 19.4622 23.4347 19.4622 23.2V8.16C19.4622 7.92533 19.5369 7.73333 19.6862 7.584C19.8356 7.43467 20.0276 7.36 20.2622 7.36H24.0382C24.2516 7.36 24.4329 7.43467 24.5822 7.584C24.7529 7.73333 24.8382 7.92533 24.8382 8.16V23.2C24.8382 23.4347 24.7529 23.6267 24.5822 23.776C24.4329 23.9253 24.2516 24 24.0382 24H20.2622ZM20.2302 4.96C19.9956 4.96 19.8036 4.88533 19.6542 4.736C19.5049 4.58667 19.4302 4.39467 19.4302 4.16V1.312C19.4302 1.07733 19.5049 0.885332 19.6542 0.735998C19.8036 0.565332 19.9956 0.48 20.2302 0.48H24.0382C24.2729 0.48 24.4649 0.565332 24.6142 0.735998C24.7849 0.885332 24.8702 1.07733 24.8702 1.312V4.16C24.8702 4.39467 24.7849 4.58667 24.6142 4.736C24.4649 4.88533 24.2729 4.96 24.0382 4.96H20.2302ZM36.029 24.32C34.6423 24.32 33.4583 24.1707 32.477 23.872C31.517 23.552 30.7276 23.168 30.109 22.72C29.5116 22.272 29.0636 21.8133 28.765 21.344C28.4663 20.8533 28.3063 20.4373 28.285 20.096C28.2636 19.8613 28.3383 19.6693 28.509 19.52C28.6796 19.3493 28.861 19.264 29.053 19.264H32.701C32.765 19.264 32.8183 19.2747 32.861 19.296C32.9036 19.3173 32.9676 19.36 33.053 19.424C33.3303 19.5733 33.6076 19.7653 33.885 20C34.1623 20.2133 34.4823 20.4053 34.845 20.576C35.2076 20.7467 35.645 20.832 36.157 20.832C36.7543 20.832 37.2556 20.7147 37.661 20.48C38.0663 20.2453 38.269 19.8933 38.269 19.424C38.269 19.0827 38.173 18.8053 37.981 18.592C37.789 18.3573 37.3943 18.1333 36.797 17.92C36.221 17.7067 35.3463 17.4933 34.173 17.28C33.0636 17.024 32.093 16.6933 31.261 16.288C30.429 15.8613 29.789 15.3173 29.341 14.656C28.893 13.9733 28.669 13.152 28.669 12.192C28.669 11.3387 28.9463 10.5173 29.501 9.728C30.0556 8.93867 30.8663 8.29867 31.933 7.808C32.9996 7.296 34.3116 7.04 35.869 7.04C37.1063 7.04 38.173 7.18933 39.069 7.488C39.9863 7.76533 40.7543 8.128 41.373 8.576C42.013 9.024 42.493 9.48267 42.813 9.952C43.133 10.4213 43.3036 10.848 43.325 11.232C43.3463 11.4453 43.2823 11.6373 43.133 11.808C42.9836 11.9573 42.813 12.032 42.621 12.032H39.293C39.2076 12.032 39.1223 12.0213 39.037 12C38.9516 11.9573 38.877 11.9147 38.813 11.872C38.557 11.744 38.301 11.5733 38.045 11.36C37.789 11.1467 37.4903 10.9547 37.149 10.784C36.8076 10.6133 36.381 10.528 35.869 10.528C35.293 10.528 34.845 10.656 34.525 10.912C34.205 11.168 34.045 11.4987 34.045 11.904C34.045 12.1813 34.1303 12.4373 34.301 12.672C34.493 12.9067 34.8663 13.12 35.421 13.312C35.997 13.504 36.8823 13.7173 38.077 13.952C39.549 14.1867 40.7223 14.5707 41.597 15.104C42.4716 15.616 43.0903 16.224 43.453 16.928C43.8156 17.6107 43.997 18.336 43.997 19.104C43.997 20.128 43.6876 21.0347 43.069 21.824C42.4716 22.6133 41.5756 23.232 40.381 23.68C39.1863 24.1067 37.7356 24.32 36.029 24.32ZM54.7405 24.32C52.9485 24.32 51.4338 24.032 50.1965 23.456C48.9805 22.88 48.0418 22.0587 47.3805 20.992C46.7405 19.904 46.3778 18.6133 46.2925 17.12C46.2711 16.6933 46.2605 16.2133 46.2605 15.68C46.2605 15.1253 46.2711 14.6453 46.2925 14.24C46.3778 12.7253 46.7618 11.4347 47.4445 10.368C48.1271 9.30133 49.0765 8.48 50.2925 7.904C51.5298 7.328 53.0125 7.04 54.7405 7.04C56.4898 7.04 57.9725 7.328 59.1885 7.904C60.4258 8.48 61.3858 9.30133 62.0685 10.368C62.7511 11.4347 63.1351 12.7253 63.2205 14.24C63.2418 14.6453 63.2525 15.1253 63.2525 15.68C63.2525 16.2133 63.2418 16.6933 63.2205 17.12C63.1351 18.6133 62.7618 19.904 62.1005 20.992C61.4605 22.0587 60.5218 22.88 59.2845 23.456C58.0685 24.032 56.5538 24.32 54.7405 24.32ZM54.7405 20.416C55.7005 20.416 56.3938 20.128 56.8205 19.552C57.2685 18.976 57.5245 18.112 57.5885 16.96C57.6098 16.64 57.6205 16.2133 57.6205 15.68C57.6205 15.1467 57.6098 14.72 57.5885 14.4C57.5245 13.2693 57.2685 12.416 56.8205 11.84C56.3938 11.2427 55.7005 10.944 54.7405 10.944C53.8018 10.944 53.1085 11.2427 52.6605 11.84C52.2125 12.416 51.9671 13.2693 51.9245 14.4C51.9031 14.72 51.8925 15.1467 51.8925 15.68C51.8925 16.2133 51.9031 16.64 51.9245 16.96C51.9671 18.112 52.2125 18.976 52.6605 19.552C53.1085 20.128 53.8018 20.416 54.7405 20.416ZM71.6947 24C71.3747 24 71.1401 23.9253 70.9907 23.776C70.8414 23.6053 70.7134 23.4133 70.6067 23.2L64.5587 8.352C64.5161 8.26667 64.4947 8.17067 64.4947 8.064C64.4947 7.872 64.5587 7.712 64.6867 7.584C64.8361 7.43467 65.0174 7.36 65.2307 7.36H68.8467C69.1241 7.36 69.3374 7.43467 69.4867 7.584C69.6361 7.73333 69.7321 7.88267 69.7747 8.032L73.3907 17.856L77.0387 8.032C77.0814 7.88267 77.1774 7.73333 77.3267 7.584C77.4761 7.43467 77.6894 7.36 77.9667 7.36H81.5827C81.7747 7.36 81.9454 7.43467 82.0947 7.584C82.2441 7.712 82.3187 7.872 82.3187 8.064C82.3187 8.17067 82.2974 8.26667 82.2547 8.352L76.2067 23.2C76.1214 23.4133 75.9934 23.6053 75.8227 23.776C75.6734 23.9253 75.4281 24 75.0867 24H71.6947ZM91.861 24.32C89.3436 24.32 87.3383 23.6373 85.845 22.272C84.3516 20.9067 83.573 18.88 83.509 16.192C83.509 16.0427 83.509 15.8507 83.509 15.616C83.509 15.3813 83.509 15.2 83.509 15.072C83.573 13.3867 83.9463 11.9467 84.629 10.752C85.333 9.536 86.293 8.61867 87.509 8C88.7463 7.36 90.1863 7.04 91.829 7.04C93.7063 7.04 95.253 7.41333 96.469 8.16C97.7063 8.90667 98.6343 9.92 99.253 11.2C99.8716 12.48 100.181 13.9413 100.181 15.584V16.352C100.181 16.5867 100.096 16.7787 99.925 16.928C99.7756 17.0773 99.5943 17.152 99.381 17.152H89.141C89.141 17.1733 89.141 17.2053 89.141 17.248C89.141 17.2907 89.141 17.3333 89.141 17.376C89.1623 17.9947 89.269 18.56 89.461 19.072C89.653 19.584 89.9516 19.9893 90.357 20.288C90.7623 20.5867 91.253 20.736 91.829 20.736C92.2556 20.736 92.6076 20.672 92.885 20.544C93.1836 20.3947 93.429 20.2347 93.621 20.064C93.813 19.872 93.9623 19.712 94.069 19.584C94.261 19.3707 94.4103 19.2427 94.517 19.2C94.645 19.136 94.837 19.104 95.093 19.104H99.061C99.2743 19.104 99.445 19.168 99.573 19.296C99.7223 19.4027 99.7863 19.5627 99.765 19.776C99.7436 20.1387 99.5623 20.576 99.221 21.088C98.8796 21.6 98.3783 22.112 97.717 22.624C97.077 23.1147 96.2663 23.52 95.285 23.84C94.3036 24.16 93.1623 24.32 91.861 24.32ZM89.141 13.984H94.549V13.92C94.549 13.2373 94.4423 12.64 94.229 12.128C94.037 11.616 93.7276 11.2213 93.301 10.944C92.8956 10.6667 92.405 10.528 91.829 10.528C91.253 10.528 90.7623 10.6667 90.357 10.944C89.973 11.2213 89.6743 11.616 89.461 12.128C89.2476 12.64 89.141 13.2373 89.141 13.92V13.984ZM103.981 24C103.746 24 103.554 23.9253 103.405 23.776C103.256 23.6267 103.181 23.4347 103.181 23.2V8.16C103.181 7.92533 103.256 7.73333 103.405 7.584C103.554 7.43467 103.746 7.36 103.981 7.36H107.661C107.896 7.36 108.088 7.43467 108.237 7.584C108.386 7.73333 108.461 7.92533 108.461 8.16V9.376C109.016 8.71467 109.741 8.16 110.637 7.712C111.533 7.264 112.589 7.04 113.805 7.04C115.042 7.04 116.13 7.31733 117.069 7.872C118.029 8.42667 118.776 9.248 119.309 10.336C119.864 11.4027 120.141 12.7147 120.141 14.272V23.2C120.141 23.4347 120.056 23.6267 119.885 23.776C119.736 23.9253 119.554 24 119.341 24H115.309C115.096 24 114.904 23.9253 114.733 23.776C114.584 23.6267 114.509 23.4347 114.509 23.2V14.464C114.509 13.4613 114.264 12.6933 113.773 12.16C113.304 11.6053 112.6 11.328 111.661 11.328C110.786 11.328 110.082 11.6053 109.549 12.16C109.037 12.6933 108.781 13.4613 108.781 14.464V23.2C108.781 23.4347 108.696 23.6267 108.525 23.776C108.376 23.9253 108.194 24 107.981 24H103.981ZM124.512 24C124.278 24 124.086 23.9253 123.936 23.776C123.787 23.6267 123.712 23.4347 123.712 23.2V2.08C123.712 1.84533 123.787 1.65333 123.936 1.504C124.086 1.35467 124.278 1.28 124.512 1.28H128.224C128.438 1.28 128.619 1.35467 128.768 1.504C128.939 1.65333 129.024 1.84533 129.024 2.08V12.8L133.472 7.904C133.6 7.75467 133.739 7.62667 133.888 7.52C134.038 7.41333 134.251 7.36 134.528 7.36H138.816C139.008 7.36 139.168 7.43467 139.296 7.584C139.446 7.712 139.52 7.872 139.52 8.064C139.52 8.14933 139.499 8.24533 139.456 8.352C139.414 8.45867 139.35 8.544 139.264 8.608L133.504 14.816L140.064 22.784C140.235 22.9547 140.32 23.1253 140.32 23.296C140.32 23.488 140.246 23.6587 140.096 23.808C139.968 23.936 139.798 24 139.584 24H135.2C134.88 24 134.646 23.9467 134.496 23.84C134.347 23.712 134.208 23.584 134.08 23.456L129.024 17.376V23.2C129.024 23.4347 128.939 23.6267 128.768 23.776C128.619 23.9253 128.438 24 128.224 24H124.512ZM149.522 24.32C147.73 24.32 146.215 24.032 144.978 23.456C143.762 22.88 142.823 22.0587 142.162 20.992C141.522 19.904 141.159 18.6133 141.074 17.12C141.052 16.6933 141.042 16.2133 141.042 15.68C141.042 15.1253 141.052 14.6453 141.074 14.24C141.159 12.7253 141.543 11.4347 142.226 10.368C142.908 9.30133 143.858 8.48 145.074 7.904C146.311 7.328 147.794 7.04 149.522 7.04C151.271 7.04 152.754 7.328 153.97 7.904C155.207 8.48 156.167 9.30133 156.85 10.368C157.532 11.4347 157.916 12.7253 158.002 14.24C158.023 14.6453 158.034 15.1253 158.034 15.68C158.034 16.2133 158.023 16.6933 158.002 17.12C157.916 18.6133 157.543 19.904 156.882 20.992C156.242 22.0587 155.303 22.88 154.066 23.456C152.85 24.032 151.335 24.32 149.522 24.32ZM149.522 20.416C150.482 20.416 151.175 20.128 151.602 19.552C152.05 18.976 152.306 18.112 152.37 16.96C152.391 16.64 152.402 16.2133 152.402 15.68C152.402 15.1467 152.391 14.72 152.37 14.4C152.306 13.2693 152.05 12.416 151.602 11.84C151.175 11.2427 150.482 10.944 149.522 10.944C148.583 10.944 147.89 11.2427 147.442 11.84C146.994 12.416 146.748 13.2693 146.706 14.4C146.684 14.72 146.674 15.1467 146.674 15.68C146.674 16.2133 146.684 16.64 146.706 16.96C146.748 18.112 146.994 18.976 147.442 19.552C147.89 20.128 148.583 20.416 149.522 20.416ZM166.476 24C166.156 24 165.921 23.9253 165.772 23.776C165.623 23.6053 165.495 23.4133 165.388 23.2L159.34 8.352C159.297 8.26667 159.276 8.17067 159.276 8.064C159.276 7.872 159.34 7.712 159.468 7.584C159.617 7.43467 159.799 7.36 160.012 7.36H163.628C163.905 7.36 164.119 7.43467 164.268 7.584C164.417 7.73333 164.513 7.88267 164.556 8.032L168.172 17.856L171.82 8.032C171.863 7.88267 171.959 7.73333 172.108 7.584C172.257 7.43467 172.471 7.36 172.748 7.36H176.364C176.556 7.36 176.727 7.43467 176.876 7.584C177.025 7.712 177.1 7.872 177.1 8.064C177.1 8.17067 177.079 8.26667 177.036 8.352L170.988 23.2C170.903 23.4133 170.775 23.6053 170.604 23.776C170.455 23.9253 170.209 24 169.868 24H166.476ZM183.86 24.32C182.708 24.32 181.674 24.1067 180.756 23.68C179.86 23.232 179.146 22.6347 178.612 21.888C178.079 21.1413 177.812 20.2987 177.812 19.36C177.812 17.8453 178.431 16.6507 179.668 15.776C180.906 14.88 182.548 14.272 184.596 13.952L188.596 13.344V12.896C188.596 12.128 188.436 11.5413 188.116 11.136C187.796 10.7307 187.21 10.528 186.356 10.528C185.759 10.528 185.268 10.6453 184.884 10.88C184.522 11.1147 184.234 11.4347 184.02 11.84C183.828 12.1173 183.562 12.256 183.22 12.256H179.636C179.402 12.256 179.22 12.192 179.092 12.064C178.964 11.9147 178.911 11.744 178.932 11.552C178.932 11.168 179.071 10.7307 179.348 10.24C179.647 9.728 180.095 9.22667 180.692 8.736C181.29 8.24533 182.058 7.84 182.996 7.52C183.935 7.2 185.066 7.04 186.388 7.04C187.775 7.04 188.959 7.2 189.94 7.52C190.922 7.84 191.711 8.288 192.308 8.864C192.927 9.44 193.386 10.1227 193.684 10.912C193.983 11.68 194.132 12.5333 194.132 13.472V23.2C194.132 23.4347 194.047 23.6267 193.876 23.776C193.727 23.9253 193.546 24 193.332 24H189.62C189.386 24 189.194 23.9253 189.044 23.776C188.895 23.6267 188.82 23.4347 188.82 23.2V22.08C188.543 22.4853 188.17 22.8587 187.7 23.2C187.231 23.5413 186.676 23.808 186.036 24C185.418 24.2133 184.692 24.32 183.86 24.32ZM185.364 20.672C185.983 20.672 186.538 20.544 187.028 20.288C187.54 20.0107 187.935 19.5947 188.212 19.04C188.511 18.464 188.66 17.7493 188.66 16.896V16.448L185.94 16.928C184.938 17.0987 184.202 17.3653 183.732 17.728C183.284 18.0693 183.06 18.4747 183.06 18.944C183.06 19.3067 183.167 19.616 183.38 19.872C183.594 20.128 183.871 20.3307 184.212 20.48C184.554 20.608 184.938 20.672 185.364 20.672Z" fill="white"/>
<path d="M82.6645 45C82.5578 45 82.4578 44.96 82.3645 44.88C82.2845 44.7867 82.2445 44.6867 82.2445 44.58C82.2445 44.5133 82.2511 44.4533 82.2645 44.4L86.9645 31.56C87.0045 31.4133 87.0845 31.2867 87.2045 31.18C87.3378 31.06 87.5178 31 87.7445 31H90.7045C90.9311 31 91.1045 31.06 91.2245 31.18C91.3578 31.2867 91.4445 31.4133 91.4845 31.56L96.1645 44.4C96.1911 44.4533 96.2045 44.5133 96.2045 44.58C96.2045 44.6867 96.1578 44.7867 96.0645 44.88C95.9845 44.96 95.8845 45 95.7645 45H93.3045C93.1045 45 92.9511 44.9533 92.8445 44.86C92.7511 44.7533 92.6911 44.66 92.6645 44.58L91.8845 42.54H86.5445L85.7845 44.58C85.7578 44.66 85.6978 44.7533 85.6045 44.86C85.5111 44.9533 85.3511 45 85.1245 45H82.6645ZM87.3645 39.66H91.0845L89.2045 34.38L87.3645 39.66ZM101.324 45.2C100.684 45.2 100.104 45.1 99.5837 44.9C99.077 44.6867 98.637 44.38 98.2637 43.98C97.9037 43.5667 97.6237 43.0733 97.4237 42.5C97.2237 41.9133 97.1103 41.2467 97.0837 40.5C97.0703 40.2333 97.0637 40 97.0637 39.8C97.0637 39.5867 97.0703 39.3533 97.0837 39.1C97.1103 38.38 97.2237 37.7333 97.4237 37.16C97.6237 36.5867 97.9037 36.0933 98.2637 35.68C98.6237 35.2667 99.0637 34.9533 99.5837 34.74C100.104 34.5133 100.684 34.4 101.324 34.4C101.99 34.4 102.564 34.5133 103.044 34.74C103.524 34.9533 103.93 35.2333 104.264 35.58V31.3C104.264 31.1533 104.31 31.0333 104.404 30.94C104.497 30.8467 104.617 30.8 104.764 30.8H107.204C107.337 30.8 107.45 30.8467 107.544 30.94C107.65 31.0333 107.704 31.1533 107.704 31.3V44.5C107.704 44.6467 107.65 44.7667 107.544 44.86C107.45 44.9533 107.337 45 107.204 45H104.944C104.797 45 104.677 44.9533 104.584 44.86C104.49 44.7667 104.444 44.6467 104.444 44.5V43.86C104.124 44.2467 103.71 44.5667 103.204 44.82C102.697 45.0733 102.07 45.2 101.324 45.2ZM102.404 42.52C102.857 42.52 103.21 42.4267 103.464 42.24C103.73 42.04 103.924 41.7867 104.044 41.48C104.177 41.1733 104.25 40.84 104.264 40.48C104.277 40.2133 104.284 39.96 104.284 39.72C104.284 39.48 104.277 39.2333 104.264 38.98C104.25 38.6467 104.177 38.34 104.044 38.06C103.91 37.7667 103.71 37.5333 103.444 37.36C103.177 37.1733 102.83 37.08 102.404 37.08C101.964 37.08 101.61 37.1733 101.344 37.36C101.09 37.5467 100.91 37.8 100.804 38.12C100.697 38.44 100.63 38.7933 100.604 39.18C100.564 39.5933 100.564 40.0067 100.604 40.42C100.63 40.8067 100.697 41.16 100.804 41.48C100.91 41.8 101.09 42.0533 101.344 42.24C101.61 42.4267 101.964 42.52 102.404 42.52ZM114.341 45.2C113.474 45.2 112.734 45.1067 112.121 44.92C111.521 44.72 111.028 44.48 110.641 44.2C110.268 43.92 109.988 43.6333 109.801 43.34C109.614 43.0333 109.514 42.7733 109.501 42.56C109.488 42.4133 109.534 42.2933 109.641 42.2C109.748 42.0933 109.861 42.04 109.981 42.04H112.261C112.301 42.04 112.334 42.0467 112.361 42.06C112.388 42.0733 112.428 42.1 112.481 42.14C112.654 42.2333 112.828 42.3533 113.001 42.5C113.174 42.6333 113.374 42.7533 113.601 42.86C113.828 42.9667 114.101 43.02 114.421 43.02C114.794 43.02 115.108 42.9467 115.361 42.8C115.614 42.6533 115.741 42.4333 115.741 42.14C115.741 41.9267 115.681 41.7533 115.561 41.62C115.441 41.4733 115.194 41.3333 114.821 41.2C114.461 41.0667 113.914 40.9333 113.181 40.8C112.488 40.64 111.881 40.4333 111.361 40.18C110.841 39.9133 110.441 39.5733 110.161 39.16C109.881 38.7333 109.741 38.22 109.741 37.62C109.741 37.0867 109.914 36.5733 110.261 36.08C110.608 35.5867 111.114 35.1867 111.781 34.88C112.448 34.56 113.268 34.4 114.241 34.4C115.014 34.4 115.681 34.4933 116.241 34.68C116.814 34.8533 117.294 35.08 117.681 35.36C118.081 35.64 118.381 35.9267 118.581 36.22C118.781 36.5133 118.888 36.78 118.901 37.02C118.914 37.1533 118.874 37.2733 118.781 37.38C118.688 37.4733 118.581 37.52 118.461 37.52H116.381C116.328 37.52 116.274 37.5133 116.221 37.5C116.168 37.4733 116.121 37.4467 116.081 37.42C115.921 37.34 115.761 37.2333 115.601 37.1C115.441 36.9667 115.254 36.8467 115.041 36.74C114.828 36.6333 114.561 36.58 114.241 36.58C113.881 36.58 113.601 36.66 113.401 36.82C113.201 36.98 113.101 37.1867 113.101 37.44C113.101 37.6133 113.154 37.7733 113.261 37.92C113.381 38.0667 113.614 38.2 113.961 38.32C114.321 38.44 114.874 38.5733 115.621 38.72C116.541 38.8667 117.274 39.1067 117.821 39.44C118.368 39.76 118.754 40.14 118.981 40.58C119.208 41.0067 119.321 41.46 119.321 41.94C119.321 42.58 119.128 43.1467 118.741 43.64C118.368 44.1333 117.808 44.52 117.061 44.8C116.314 45.0667 115.408 45.2 114.341 45.2Z" fill="#313131"/>
</svg>
