<svg width="422" height="480" viewBox="0 0 422 480" fill="none" xmlns="http://www.w3.org/2000/svg">
<path fill-rule="evenodd" clip-rule="evenodd" d="M291.004 59.4486C297.619 51.6987 302.095 42.2012 301.347 31.5589C299.192 0.895518 256.432 7.64107 248.114 23.1173C239.796 38.5935 240.785 77.8503 251.535 80.6163C255.822 81.7194 264.954 79.0173 274.249 73.4247L268.415 114.627H302.864L291.004 59.4486Z" fill="#915B3C"/>
<path fill-rule="evenodd" clip-rule="evenodd" d="M293.652 66.3511C297.975 47.1495 310.293 34.0605 308.411 25.4783C307.157 19.7568 303.815 16.1988 298.384 14.8042C295.575 3.46102 286.516 -1.3637 271.206 0.330091C248.241 2.87078 234.225 12.3908 240.278 33.339C245.842 33.339 252.559 31.3304 261.847 34.7719C264.794 35.8639 266.902 39.2502 268.171 44.9308H272.368C276.442 38.1894 280.459 35.7122 284.418 37.499C288.378 39.2859 289.278 43.6261 287.119 50.5197L289.186 66.3511H293.652Z" fill="#191847"/>
<path fill-rule="evenodd" clip-rule="evenodd" d="M399.034 293.731H233.966C221.282 293.731 211 303.995 211 316.657V448.478C211 461.139 221.282 471.403 233.966 471.403H399.034C411.718 471.403 422 461.139 422 448.478V316.657C422 303.995 411.718 293.731 399.034 293.731ZM376.068 333.851C379.239 333.851 381.809 336.417 381.809 339.582V425.552C381.809 428.718 379.239 431.284 376.068 431.284H256.932C253.761 431.284 251.19 428.718 251.19 425.552V339.582C251.19 336.417 253.761 333.851 256.932 333.851H376.068Z" fill="#C5CFD6"/>
<path fill-rule="evenodd" clip-rule="evenodd" d="M68.6697 464.239C96.9694 429.742 116.118 404.168 126.114 387.516C143.231 359.004 157.241 333.633 161.662 323.942C172.204 300.831 137.391 290.01 129.512 300.789C117.587 317.104 92.1193 368.444 53.1088 454.807L68.6697 464.239Z" fill="#B28B67"/>
<path fill-rule="evenodd" clip-rule="evenodd" d="M126.661 454.209L179.328 321.868C190.593 297.743 136.194 281.885 127.916 293.112C109.121 318.601 64.4499 419.153 58.8503 426.747L126.661 454.209Z" fill="#2F3676"/>
<path fill-rule="evenodd" clip-rule="evenodd" d="M266.932 427.665C256.672 412.727 219.354 362.469 199.028 341.675C193.187 335.699 187.487 329.964 182.097 324.619C166.075 308.734 134.174 335.439 150.166 349.908C189.994 385.943 248.104 434.588 252.96 438.925C259.764 445.004 273.38 437.054 266.932 427.665Z" fill="#915B3C"/>
<path fill-rule="evenodd" clip-rule="evenodd" d="M264.511 420.909C268.049 423.807 270.352 426.174 271.418 428.011C272.715 430.245 274.234 433.72 275.976 438.437C273.377 439.937 250.016 453.42 205.895 478.885C200.589 473.933 199.759 470.086 203.405 467.342C207.051 464.599 210.059 462.286 212.43 460.402L236.598 427.124C237.063 426.484 237.961 426.341 238.603 426.804C238.614 426.812 238.625 426.82 238.636 426.828L243.669 430.684C248.282 430.277 251.725 429.418 253.995 428.108C255.841 427.043 257.957 424.829 260.346 421.467L260.346 421.467C261.262 420.177 263.054 419.871 264.349 420.785C264.404 420.825 264.459 420.866 264.511 420.909Z" fill="#E4E4E4"/>
<path fill-rule="evenodd" clip-rule="evenodd" d="M80.8429 459.083C82.4487 463.363 83.2516 466.564 83.2516 468.689C83.2516 471.273 82.8204 475.043 81.958 480C78.9553 480 51.9694 480 1.00033 480C-1.10347 473.057 0.110962 469.309 4.64364 468.755C9.17632 468.202 12.9417 467.702 15.9398 467.256L53.5681 450.511C54.2922 450.188 55.1408 450.513 55.4636 451.236C55.4691 451.248 55.4744 451.261 55.4796 451.273L57.8983 457.13C62.0944 459.084 65.5042 460.062 68.1276 460.062C70.259 460.062 73.2026 459.202 76.9583 457.484L76.9583 457.484C78.3995 456.824 80.1035 457.456 80.7642 458.894C80.7927 458.956 80.8189 459.019 80.8429 459.083Z" fill="#E4E4E4"/>
<path fill-rule="evenodd" clip-rule="evenodd" d="M198.28 328.478C242.054 321.359 271.375 316.491 286.242 313.874C328.618 306.415 340.976 283.652 333.669 233.985H255.591C245.259 236.964 202.086 255.385 126.072 289.249C112.396 296.026 114.943 316.008 117.443 322.592C117.545 322.86 140.6 362.297 186.61 440.902L250.481 400.285L198.16 333.264C196.778 330.486 196.818 328.89 198.28 328.478Z" fill="#5C63AB"/>
<path fill-rule="evenodd" clip-rule="evenodd" d="M192.654 215.228L146.868 248.791C134.45 252.136 124.075 256.297 115.744 261.276C113.775 263.066 111.397 266.691 119.559 266.065C127.721 265.438 136.335 265.145 137.461 267.924C138.587 270.704 133.648 274.027 135.925 277.777C137.442 280.277 144.613 274.008 157.436 258.972L202.776 240.204L192.654 215.228ZM368.449 216.387L338.454 216.504C356.975 276.187 366.973 307.855 368.449 311.507C371.771 319.723 364.742 332.237 361.736 338.962C371.526 343.335 370.483 327.141 382.832 332.876C394.103 338.11 402.677 347.595 415.7 339.574C417.301 338.588 419.056 334.875 414.817 331.973C404.255 324.744 389.036 312.093 386.98 307.928C384.176 302.249 377.999 271.735 368.449 216.387Z" fill="#915B3C"/>
<path fill-rule="evenodd" clip-rule="evenodd" d="M283.206 90.7444L270.795 88.6193C224.743 128.331 205.828 204.622 149.38 245.036L162.967 261.847C260.893 249.744 285.165 156.687 283.206 90.7444Z" fill="#E87613"/>
<path fill-rule="evenodd" clip-rule="evenodd" d="M337.313 246.448C287.546 246.448 250.938 246.448 227.49 246.448C222.472 246.448 223.418 239.214 224.143 235.564C232.515 193.438 265.198 148.028 265.198 88.0632L296.876 83.1045C323.078 125.17 332.139 176.962 337.313 246.448Z" fill="#DDE3E9"/>
<path fill-rule="evenodd" clip-rule="evenodd" d="M336.43 124.453C341.031 123.133 344.675 120.054 347.361 115.216C358.939 94.361 354.757 82.8787 342.384 79.1044C330.01 75.3301 318.976 83.1045 299.261 83.1045C298.189 83.1045 297.207 83.1716 296.315 83.3058L286.398 83.8707C257.945 180.129 250.098 244.351 262.857 276.537H349.296C354.417 288.458 359.318 298.488 363.998 306.627H387.551C389.768 235.081 372.728 174.357 336.43 124.453Z" fill="#FF9B21"/>
<path fill-rule="evenodd" clip-rule="evenodd" d="M330.473 227.101C327.755 249.806 323.336 266.285 317.218 276.537H349.296C343.322 262.632 337.048 246.153 330.473 227.101Z" fill="black" fill-opacity="0.1"/>
</svg>
